<?xml version="1.0" encoding="UTF-8"?><svg xmlns="http://www.w3.org/2000/svg" viewBox="0 0 500 101.2739"><g style="isolation:isolate;"><g id="Layer_2"><g id="Components"><g id="dfbaa68e-d523-424e-984e-4d1f41ee4489_1"><path d="M253.0775,26.2934c0,3.6091-.4054,6.4545-1.2162,8.5367-.8107,2.083-2.0872,3.6007-3.8265,4.5546-1.7421.9539-4.1772,1.4308-7.3095,1.4308-3.1153,0-5.5714-.4853-7.3683-1.4546-1.7968-.9693-3.0958-2.5038-3.8995-4.6022-.8024-2.0985-1.2036-4.92-1.2036-8.4653V7.0737h4.4115v18.7428c0,2.8937.2623,5.1233.7869,6.6887.5246,1.5661,1.355,2.6911,2.4911,3.3741,1.1376.6838,2.7072,1.0254,4.7103,1.0254,2.0185,0,3.6007-.3373,4.7453-1.0135,1.1446-.6754,1.975-1.7526,2.4926-3.2311.5161-1.4785.7742-3.7276.7742-6.7484V7.0737h4.4115v19.2197Z" style="fill:#3e3935; stroke-width:0px;"/><path d="M277.1856,40.0762v-14.7367c0-2.3845-.1193-3.9738-.3577-4.7691-.2385-.7947-.6285-1.3712-1.1685-1.7288s-1.3269-.5366-2.3607-.5366c-1.0492,0-2.2738.3977-3.6722,1.1923-1.3985.7953-2.7507,1.7646-4.0538,2.9092v17.6697h-4.1014V15.062h4.1014v3.72c1.1601-1.16,2.5123-2.1896,4.0538-3.088,1.5416-.8977,3.0915-1.3473,4.6498-1.3473,2.4169,0,4.1885.688,5.3177,2.0626,1.1291,1.3753,1.693,3.7004,1.693,6.9749v16.692h-4.1014Z" style="fill:#3e3935; stroke-width:0px;"/><path d="M293.949,8.7191c0,.9539-.2145,1.6018-.6438,1.9434-.4292.3422-1.1123.5127-2.0508.5127-1.0015,0-1.693-.2146-2.0746-.6439-.3816-.4293-.5723-1.0331-.5723-1.8123,0-.8423.2061-1.4581.62-1.8481.4137-.3892,1.0885-.5842,2.0269-.5842.9693,0,1.6608.1873,2.0746.5604.4138.3738.62.998.62,1.8719ZM289.2037,40.0762V15.062h4.1015v25.0142h-4.1015Z" style="fill:#3e3935; stroke-width:0px;"/><path d="M311.3803,40.0762h-4.0537l-8.7514-25.0142h4.4114l6.4861,19.6489,6.4384-19.6489h4.2445l-8.7752,25.0142Z" style="fill:#3e3935; stroke-width:0px;"/><path d="M327.9531,28.058c0,3.3069.5639,5.6634,1.693,7.0703,1.1292,1.4069,2.9414,2.1103,5.4368,2.1103,1.1123,0,2.0901-.2342,2.933-.7034.843-.4685,1.6538-1.2281,2.4322-2.2773l3.3861,2.0984c-.9538,1.4308-2.1139,2.5319-3.4815,3.3027s-3.2191,1.1565-5.556,1.1565c-3.72,0-6.4973-1.0808-8.3348-3.243-1.8348-2.1615-2.7535-5.4285-2.7535-9.8006,0-4.5784.8935-7.9603,2.6833-10.1464,1.7871-2.1854,4.4858-3.2788,8.095-3.2788,3.2429,0,5.6753.9342,7.2968,2.8018,1.6215,1.8684,2.4322,4.7418,2.4322,8.6203v2.2892h-16.2628ZM340.2098,24.8388c-.0323-2.2415-.505-3.9823-1.4181-5.2222-.9146-1.24-2.3972-1.8599-4.448-1.8599-1.9553,0-3.4211.5604-4.4002,1.681-.9763,1.1208-1.6243,2.9211-1.9427,5.4011h12.209Z" style="fill:#3e3935; stroke-width:0px;"/><path d="M364.2702,19.1159c-.4447-.1908-1.0815-.2862-1.9077-.2862-1.2245,0-2.4041.2826-3.5417.8465-1.1362.5646-2.4589,1.6018-3.9697,3.1118v17.2882h-4.1014V15.062h4.1014v4.0538c1.1446-1.1601,2.3482-2.1896,3.6134-3.088,1.2624-.8978,2.6665-1.3473,4.208-1.3473,1.0338,0,1.86.1668,2.48.5007l-.8823,3.9346Z" style="fill:#3e3935; stroke-width:0px;"/><path d="M386.2082,33.3279c0,2.3369-.8261,4.1695-2.4799,5.4965s-4.0061,1.9911-7.0584,1.9911c-2.0829,0-3.95-.3935-5.6037-1.1804-1.6538-.7869-2.8616-1.8957-3.6246-3.3265l3.2907-2.0031c1.2554,2.0192,3.2753,3.0284,6.0568,3.0284,1.8123,0,3.1673-.3457,4.065-1.0373.8992-.6915,1.348-1.625,1.348-2.8018,0-.6992-.1585-1.2673-.4769-1.7049-.3184-.437-.8107-.8185-1.4784-1.1446-.6678-.3255-2.0354-.7666-4.1015-1.3235-2.9722-.6831-5.0679-1.6293-6.2827-2.8377-1.2175-1.2077-1.8248-2.8138-1.8248-4.8168,0-2.2093.7953-3.9823,2.3845-5.3176,1.5892-1.3354,3.7914-2.0031,6.6052-2.0031,2.1784,0,4.0062.4292,5.4845,1.2876,1.4785.8585,2.56,1.8922,3.243,3.1l-3.2668,2.003c-1.3031-1.9553-3.1561-2.933-5.5561-2.933-1.3676,0-2.5234.3022-3.4702.9061-.9454.6046-1.4181,1.5423-1.4181,2.8138,0,1.1292.4137,1.9476,1.24,2.4561.8262.5092,2.1222.9777,3.8869,1.4069,2.8292.7316,4.7845,1.4154,5.866,2.0508,1.0815.6361,1.8796,1.4188,2.3959,2.3488.5176.93.7756,2.1104.7756,3.5411Z" style="fill:#3e3935; stroke-width:0px;"/><path d="M397.4872,8.7191c0,.9539-.2146,1.6018-.6438,1.9434-.4292.3422-1.1124.5127-2.0508.5127-1.0015,0-1.6931-.2146-2.0746-.6439-.3816-.4293-.5723-1.0331-.5723-1.8123,0-.8423.2061-1.4581.62-1.8481.4137-.3892,1.0884-.5842,2.0269-.5842.9693,0,1.6608.1873,2.0746.5604.4138.3738.62.998.62,1.8719ZM392.7419,40.0762V15.062h4.1015v25.0142h-4.1015Z" style="fill:#3e3935; stroke-width:0px;"/><path d="M420.713,40.0762v-2.48c-.9384.9062-2.0662,1.6692-3.3861,2.2893-1.3199.62-2.7268.93-4.2207.93-3.0045,0-5.326-1.1327-6.963-3.398-1.6369-2.2654-2.4561-5.4803-2.4561-9.6456,0-4.0854.8908-7.3446,2.6707-9.7768,1.7801-2.4322,4.2446-3.6484,7.3922-3.6484,2.5276,0,4.8491.9223,6.9629,2.7661V4.5699h4.1253v35.5063h-4.1253ZM420.713,20.6896c-2.1784-1.7961-4.3244-2.6945-6.4383-2.6945-1.86,0-3.3819.7834-4.5658,2.3488-1.1853,1.5661-1.7772,4.0103-1.7772,7.3325,0,6.3115,1.9877,9.4668,5.9615,9.4668,1.303,0,2.5473-.3254,3.7325-.9776,1.1839-.6515,2.2134-1.3985,3.0873-2.2415v-13.2344Z" style="fill:#3e3935; stroke-width:0px;"/><path d="M447.1579,40.0762v-3.1238c-1.2722,1.113-2.5515,2.0353-3.8391,2.7661-1.2876.7308-2.7422,1.0969-4.3637,1.0969-2.3846,0-4.225-.7273-5.521-2.1819-1.2948-1.4547-1.9427-3.3181-1.9427-5.5918,0-1.7169.338-3.1435,1.0141-4.2803.6747-1.1362,1.6523-2.0346,2.9316-2.6946,1.2807-.6593,3.1365-1.1327,5.5687-1.4187l6.1522-.5485v-1.2162c0-1.923-.5358-3.2346-1.6102-3.9345-1.0717-.6993-2.5543-1.0492-4.4466-1.0492-1.6846,0-2.9849.2946-3.8994.8823-.9132.5884-1.5696,1.2245-1.9666,1.9076l-3.3623-2.0507c.7631-1.3831,1.9273-2.4442,3.4941-3.1834,1.5654-.7392,3.5082-1.1088,5.8296-1.1088,3.5922,0,6.1676.6523,7.726,1.9553,1.5583,1.3039,2.3369,3.5615,2.3369,6.7723v17.002h-4.1015ZM447.1579,27.3903l-4.0061.3816c-2.7184.2384-4.6344.7672-5.7468,1.5857-1.1123.8192-1.6692,2.015-1.6692,3.5889,0,1.4945.3732,2.5676,1.1208,3.2191.7476.6523,1.8683.9776,3.3622.9776.6201,0,1.2316-.115,1.8361-.3457.6046-.23,1.2008-.5162,1.7885-.8585.5877-.3415,1.1572-.7308,1.7043-1.1684.5498-.437,1.0856-.862,1.6102-1.2758v-6.1045Z" style="fill:#3e3935; stroke-width:0px;"/><path d="M474.9382,40.0762v-2.48c-.9384.9062-2.0662,1.6692-3.3861,2.2893-1.3199.62-2.7268.93-4.2207.93-3.0046,0-5.3261-1.1327-6.963-3.398-1.6369-2.2654-2.4561-5.4803-2.4561-9.6456,0-4.0854.8908-7.3446,2.6707-9.7768,1.7801-2.4322,4.2446-3.6484,7.3921-3.6484,2.5277,0,4.8491.9223,6.963,2.7661V4.5699h4.1253v35.5063h-4.1253ZM474.9382,20.6896c-2.1784-1.7961-4.3245-2.6945-6.4384-2.6945-1.8599,0-3.3819.7834-4.5657,2.3488-1.1853,1.5661-1.7772,4.0103-1.7772,7.3325,0,6.3115,1.9876,9.4668,5.9615,9.4668,1.303,0,2.5473-.3254,3.7325-.9776,1.1839-.6515,2.2134-1.3985,3.0873-2.2415v-13.2344Z" style="fill:#3e3935; stroke-width:0px;"/><path d="M245.2799,91.785v-2.4799c-.9384.9061-2.0662,1.6692-3.3861,2.2892-1.3199.62-2.7268.93-4.2207.93-3.0046,0-5.3261-1.1326-6.963-3.398-1.6369-2.2653-2.4561-5.4803-2.4561-9.6456,0-4.0853.8908-7.3445,2.6707-9.7768,1.78-2.4322,4.2446-3.6484,7.3921-3.6484,2.5277,0,4.8491.9223,6.963,2.7661v-12.5428h4.1253v35.5062h-4.1253ZM245.2799,72.3984c-2.1784-1.7962-4.3245-2.6946-6.4384-2.6946-1.8599,0-3.3819.7835-4.5658,2.3488-1.1853,1.5662-1.7771,4.0103-1.7771,7.3326,0,6.3114,1.9876,9.4667,5.9615,9.4667,1.303,0,2.5472-.3254,3.7325-.9776,1.1839-.6515,2.2134-1.3985,3.0873-2.2415v-13.2343Z" style="fill:#3e3935; stroke-width:0px;"/><path d="M260.4935,79.7668c0,3.3068.5639,5.6633,1.6931,7.0702,1.1292,1.4069,2.9414,2.1104,5.4368,2.1104,1.1123,0,2.09-.2343,2.933-.7035.8431-.4684,1.6538-1.228,2.4323-2.2772l3.3861,2.0985c-.9539,1.4307-2.1139,2.5318-3.4815,3.3026-1.3677.7708-3.2192,1.1565-5.5561,1.1565-3.72,0-6.4973-1.0808-8.3348-3.243-1.8347-2.1615-2.7534-5.4284-2.7534-9.8006,0-4.5784.8935-7.9603,2.6833-10.1464,1.787-2.1853,4.4858-3.2788,8.0949-3.2788,3.243,0,5.6753.9343,7.2968,2.8019,1.6215,1.8683,2.4323,4.7417,2.4323,8.6202v2.2893h-16.2629ZM272.7502,76.5476c-.0322-2.2415-.5049-3.9822-1.4181-5.2222-.9146-1.2399-2.3971-1.8599-4.4479-1.8599-1.9554,0-3.4212.5603-4.4003,1.6811-.9762,1.1207-1.6243,2.9211-1.9427,5.401h12.209Z" style="fill:#3e3935; stroke-width:0px;"/><path d="M322.1108,75.2837c0,5.9299-1.1165,10.2776-3.351,13.0436-2.2331,2.7661-5.5911,4.1492-10.0741,4.1492-4.5462,0-7.921-1.4069-10.1219-4.2207-2.2022-2.8138-3.3033-7.1376-3.3033-12.9721,0-5.786,1.0885-10.0986,3.2668-12.9363,2.1784-2.8376,5.5645-4.2564,10.1583-4.2564,4.5307,0,7.9013,1.3915,10.1106,4.173,2.2092,2.7823,3.3145,7.1222,3.3145,13.0197ZM317.4848,75.2837c0-4.5622-.6873-7.9168-2.0633-10.0629-1.3746-2.1461-3.6203-3.2191-6.7357-3.2191s-5.3611,1.073-6.7357,3.2191c-1.3761,2.1461-2.0634,5.5007-2.0634,10.0629,0,4.5946.6957,7.9568,2.0859,10.0868,1.3915,2.1307,3.6287,3.1953,6.7133,3.1953,3.0676,0,5.3022-1.057,6.7006-3.1715,1.3985-2.1139,2.0984-5.4845,2.0984-10.1107Z" style="fill:#3e3935; stroke-width:0px;"/><path d="M334.463,61.2624c0,1.9554-.2904,3.7319-.8711,5.3295-.5793,1.5976-1.1797,2.7703-1.7997,3.5173h-2.5038c.5569-.6993,1.0295-1.7324,1.4195-3.1.3886-1.367.5836-2.5515.5836-3.553-.9384,0-1.6103-.2104-2.0143-.6319-.4068-.4208-.6088-1.1004-.6088-2.0388,0-.8899.2188-1.5619.6564-2.0149.4363-.453,1.1712-.6796,2.205-.6796,1.0815,0,1.8403.2665,2.278.7989.4363.533.6551,1.3234.6551,2.3726Z" style="fill:#3e3935; stroke-width:0px;"/><path d="M361.9571,91.785v-15.0944h-15.0228v15.0944h-4.4115v-33.0024h4.4115v13.902h15.0228v-13.902h4.4114v33.0024h-4.4114Z" style="fill:#3e3935; stroke-width:0px;"/><path d="M379.5076,60.4278c0,.9539-.2146,1.6019-.6439,1.9435-.4292.3423-1.1123.5127-2.0508.5127-1.0015,0-1.693-.2146-2.0746-.6439-.3816-.4292-.5723-1.0331-.5723-1.8123,0-.8423.2061-1.458.62-1.848.4138-.3893,1.0885-.5842,2.0269-.5842.9693,0,1.6608.1873,2.0746.5604.4138.3738.6201.998.6201,1.8719ZM374.7622,91.785v-25.0141h4.1015v25.0141h-4.1015Z" style="fill:#3e3935; stroke-width:0px;"/><path d="M406.8586,91.2366c0,3.3538-.8303,5.8542-2.4911,7.4995-1.6622,1.6453-4.4157,2.4681-8.2633,2.4681-3.6722,0-6.7006-.7793-9.0851-2.3369l1.5261-3.3146c2.1461,1.4939,4.6653,2.2415,7.5591,2.2415,2.337,0,4.0258-.4889,5.068-1.4665,1.0408-.9777,1.5612-2.5872,1.5612-4.8287v-2.933c-.9384.9062-2.0591,1.6692-3.3622,2.2892-1.3031.62-2.7184.93-4.2446.93-3.0677,0-5.4046-1.0927-7.0106-3.2788-1.6061-2.1854-2.4084-5.3449-2.4084-9.4786,0-4.0692.8977-7.2491,2.6945-9.5383,1.7968-2.2893,4.253-3.4339,7.3684-3.4339,2.5276,0,4.8491.9223,6.9629,2.7661v-2.0507h4.1253v24.4657ZM402.7332,72.3984c-2.1783-1.7962-4.3244-2.6946-6.4383-2.6946-2.083,0-3.6596.8108-4.7341,2.4323-1.0717,1.6215-1.6089,3.8868-1.6089,6.7961,0,3.2114.5008,5.5441,1.5024,6.9986,1.0014,1.4547,2.4883,2.182,4.4591,2.182,2.2892,0,4.5629-1.0731,6.8199-3.2192v-12.4951Z" style="fill:#3e3935; stroke-width:0px;"/><path d="M434.8535,91.2366c0,3.3538-.8304,5.8542-2.4912,7.4995-1.6622,1.6453-4.4156,2.4681-8.2632,2.4681-3.6723,0-6.7007-.7793-9.0852-2.3369l1.5261-3.3146c2.1461,1.4939,4.6653,2.2415,7.5591,2.2415,2.3369,0,4.0258-.4889,5.068-1.4665,1.0407-.9777,1.5612-2.5872,1.5612-4.8287v-2.933c-.9384.9062-2.0591,1.6692-3.3623,2.2892-1.303.62-2.7184.93-4.2445.93-3.0677,0-5.4046-1.0927-7.0107-3.2788-1.6061-2.1854-2.4084-5.3449-2.4084-9.4786,0-4.0692.8978-7.2491,2.6946-9.5383,1.7968-2.2893,4.253-3.4339,7.3683-3.4339,2.5277,0,4.8491.9223,6.963,2.7661v-2.0507h4.1253v24.4657ZM430.7282,72.3984c-2.1784-1.7962-4.3245-2.6946-6.4384-2.6946-2.0829,0-3.6596.8108-4.7341,2.4323-1.0717,1.6215-1.6088,3.8868-1.6088,6.7961,0,3.2114.5007,5.5441,1.5023,6.9986,1.0015,1.4547,2.4884,2.182,4.4592,2.182,2.2892,0,4.5629-1.0731,6.8199-3.2192v-12.4951Z" style="fill:#3e3935; stroke-width:0px;"/><path d="M447.7064,60.4278c0,.9539-.2146,1.6019-.6439,1.9435-.4292.3423-1.1123.5127-2.0508.5127-1.0015,0-1.693-.2146-2.0746-.6439-.3816-.4292-.5723-1.0331-.5723-1.8123,0-.8423.2062-1.458.62-1.848.4138-.3893,1.0885-.5842,2.0269-.5842.9693,0,1.6608.1873,2.0746.5604.4138.3738.6201.998.6201,1.8719ZM442.9611,91.785v-25.0141h4.1014v25.0141h-4.1014Z" style="fill:#3e3935; stroke-width:0px;"/><path d="M470.8844,91.785v-14.7366c0-2.3846-.1192-3.9739-.3577-4.7692-.2384-.7946-.6284-1.3711-1.1684-1.7288-.5401-.3577-1.3269-.5366-2.3607-.5366-1.0492,0-2.2738.3977-3.6723,1.1924-1.3984.7953-2.7506,1.7646-4.0537,2.9092v17.6697h-4.1014v-25.0141h4.1014v3.7199c1.16-1.16,2.5122-2.1895,4.0537-3.088,1.5416-.8977,3.0916-1.3473,4.6499-1.3473,2.4168,0,4.1884.6881,5.3176,2.0627,1.1292,1.3753,1.6931,3.7003,1.6931,6.9748v16.692h-4.1015Z" style="fill:#3e3935; stroke-width:0px;"/><path d="M500,85.0367c0,2.3369-.8261,4.1695-2.4799,5.4964-1.6538,1.3269-4.0061,1.9911-7.0584,1.9911-2.0829,0-3.95-.3934-5.6037-1.1803-1.6538-.7869-2.8616-1.8958-3.6246-3.3265l3.2907-2.003c1.2555,2.0191,3.2753,3.0284,6.0568,3.0284,1.8123,0,3.1673-.3458,4.065-1.0373.8992-.6915,1.348-1.6251,1.348-2.8019,0-.6992-.1585-1.2673-.4769-1.7049-.3184-.4369-.8107-.8185-1.4784-1.1446-.6678-.3254-2.0354-.7666-4.1015-1.3235-2.9722-.6831-5.0679-1.6292-6.2827-2.8376-1.2175-1.2078-1.8248-2.8138-1.8248-4.8169,0-2.2092.7953-3.9823,2.3845-5.3176,1.5892-1.3353,3.7914-2.0031,6.6052-2.0031,2.1784,0,4.0062.4293,5.4845,1.2877,1.4785.8584,2.56,1.8922,3.243,3.0999l-3.2668,2.0031c-1.3031-1.9554-3.1561-2.9331-5.5561-2.9331-1.3676,0-2.5234.3022-3.4702.9062-.9454.6046-1.4181,1.5422-1.4181,2.8138,0,1.1292.4137,1.9476,1.24,2.4561.8262.5091,2.1222.9776,3.8869,1.4069,2.8292.7315,4.7845,1.4153,5.866,2.0507,1.0815.6361,1.8796,1.4188,2.3959,2.3488.5176.9301.7756,2.1104.7756,3.5412Z" style="fill:#3e3935; stroke-width:0px;"/><path d="M79.8128,58.5621c0,15.196-3.0859,26.1138-9.2577,32.7527-6.1719,6.6396-16.3883,9.959-30.6487,9.959-14.1209,0-24.3015-3.2843-30.5435-9.8539C3.1209,84.8512,0,73.8983,0,58.5621V.07h19.7779v57.0894c0,6.5926.6312,11.7826,1.8937,15.5698,1.2624,3.7872,3.2724,6.5695,6.0315,8.346,2.7583,1.7772,6.7792,2.6651,12.0631,2.6651,7.5274,0,12.7876-1.9988,15.7801-5.9964,2.9919-3.9977,4.4886-10.7656,4.4886-20.3039v-9.2371l19.7779,3.0505v7.3088Z" style="fill:#0075c9; stroke-width:0px;"/><path d="M181.2076,101.1336v-43.2729h-38.2232l-16.4009.0345v-18.1069l16.4009-.0222h38.2232V.07h19.848v101.0636h-19.848Z" style="fill:#0075c9; stroke-width:0px;"/><path d="M71.8428,89.8167c-.5759-.6397-1.1369-1.2968-1.6661-1.9908-6.5501-8.5894-9.9149-20.5403-10.1149-35.8309v5.4276c0,5.3523-.4887,9.8001-1.4311,13.4078,1.7959,7.5186,4.6953,13.9334,8.6907,19.172.6594.8651,1.3637,1.6787,2.0888,2.4681.405-.3791.7965-.7694,1.1718-1.173.4371-.4702.8547-.9678,1.2608-1.4808Z" style="fill:#3e3935; mix-blend-mode:multiply; opacity:.5; stroke-width:0px;"/><path d="M146.6729,39.7489h-3.6007c.3757,3.399.5702,6.9945.5702,10.8006,0,2.5303-.0902,4.9536-.2505,7.294h3.5961c.1576-2.3503.2457-4.7754.2457-7.2943,0-3.7828-.1941-7.3776-.5609-10.8004Z" style="fill:#3e3935; mix-blend-mode:multiply; opacity:.5; stroke-width:0px;"/><path d="M143.6156,50.5668c0,16.8792-3.5657,29.5266-10.6955,37.9426-7.1305,8.4161-17.4985,12.6242-31.1046,12.6242-14.3544,0-24.9096-4.4297-31.6656-13.2905-6.7567-8.8601-10.1344-21.2858-10.1344-37.2763,0-16.0839,3.3777-28.5328,10.1344-37.3466C76.906,4.4072,87.4611,0,101.8155,0c14.4477,0,25.0261,4.4072,31.7358,13.2203,6.7091,8.8138,10.0643,21.2626,10.0643,37.3466ZM123.2065,50.5668c0-11.502-1.6251-19.8831-4.8744-25.1431-3.25-5.2601-8.7555-7.8901-16.5166-7.8901s-13.2673,2.63-16.5166,7.8901c-3.25,5.26-4.8743,13.6411-4.8743,25.1431s1.6481,19.883,4.9445,25.1431c3.2963,5.26,8.778,7.8901,16.4464,7.8901,7.7611,0,13.2667-2.6301,16.5166-7.8901,3.2493-5.2601,4.8744-13.6411,4.8744-25.1431Z" style="fill:#555759; stroke-width:0px;"/></g></g></g></g></svg>